{
  "source": "C:\\Users\\Peter\\Desktop\\stuff\\MIUN\\quantitative_research\\video_compression\\videos\\HEVC_CLASS_B\\BasketballDrive_1920x1080_50.y4m",
  "output": "C:\\Users\\Peter\\Desktop\\stuff\\MIUN\\quantitative_research\\video_compression\\compressed_videos\\HEVC_CLASS_B\\av1\\1\\BasketballDrive_1920x1080_50_av1.mkv",
  "codec": "av1",
  "ok": "Input #0, yuv4mpegpipe, from 'C:\\Users\\Peter\\Desktop\\stuff\\MIUN\\quantitative_research\\video_compression\\videos\\HEVC_CLASS_B\\BasketballDrive_1920x1080_50.y4m':\n  Duration: 00:00:10.00, start: 0.000000, bitrate: 1244162 kb/s\n  Stream #0:0: Video: rawvideo (I420 / 0x30323449), yuv420p(progressive), 1920x1080, 50 fps, 50 tbr, 50 tbn\n[out#0/matroska @ 000001ce62999c40] Codec AVOption b:a (set bitrate (in bits/s)) has not been used for any stream. The most likely reason is either wrong type (e.g. a video option with no video streams) or that it is a private option of some decoder which was not actually used for any stream.\nStream mapping:\n  Stream #0:0 -> #0:0 (rawvideo (native) -> av1 (libsvtav1))\nPress [q] to stop, [?] for help\nSvt[info]: -------------------------------------------\nSvt[info]: SVT [version]:\tSVT-AV1 Encoder Lib v3.1.0-19-g6ecfe8ec\nSvt[info]: SVT [build]  :\tGCC 15.2.0\t 64 bit\nSvt[info]: LIB Build date: Aug 17 2025 11:37:13\nSvt[info]: -------------------------------------------\n[libsvtav1 @ 000001ce6299c100] Specified chroma sample location center is unsupported on the AV1 bit stream level. Usage of a container that allows passing this information - such as Matroska - is recommended.\nSvt[info]: Level of Parallelism: 5\nSvt[info]: Number of PPCS 93\nSvt[info]: [asm level on system : up to avx2]\nSvt[info]: [asm level selected : up to avx2]\nSvt[info]: -------------------------------------------\nSvt[info]: SVT [config]: main profile\ttier (auto)\tlevel (auto)\nSvt[info]: SVT [config]: width / height / fps numerator / fps denominator \t\t: 1920 / 1080 / 50 / 1\nSvt[info]: SVT [config]: bit-depth / color format \t\t\t\t\t: 8 / YUV420\nSvt[info]: SVT [config]: preset / tune / pred struct \t\t\t\t\t: 4 / PSNR / random access\nSvt[info]: SVT [config]: gop size / mini-gop size / key-frame type \t\t\t: 321 / 16 / key frame\nSvt[info]: SVT [config]: BRC mode / target bitrate (kbps)\t\t\t\t: VBR / 1000 \nSvt[info]: SVT [config]: AQ mode / Variance Boost \t\t\t\t\t: 2 / 0\nSvt[info]: SVT [config]: sharpness / luminance-based QP bias \t\t\t\t: 0 / 0\nSvt[info]: SVT [config]: QP scale compress strength \t\t\t\t\t: 0\nSvt[info]: -------------------------------------------\nOutput #0, matroska, to 'C:\\Users\\Peter\\Desktop\\stuff\\MIUN\\quantitative_research\\video_compression\\compressed_videos\\HEVC_CLASS_B\\av1\\1\\BasketballDrive_1920x1080_50_av1.mkv':\n  Metadata:\n    encoder         : Lavf62.3.100\n  Stream #0:0: Video: av1 (AV01 / 0x31305641), yuv420p(tv, progressive), 1920x1080, q=2-31, 1000 kb/s, 50 fps, 1k tbn\n    Metadata:\n      encoder         : Lavc62.11.100 libsvtav1\n    Side data:\n      cpb: bitrate max/min/avg: 0/0/1000000 buffer size: 1000000 vbv_delay: N/A\nframe=    0 fps=0.0 q=0.0 size=       0KiB time=N/A bitrate=N/A speed=N/A elapsed=0:00:00.52    \nframe=    0 fps=0.0 q=0.0 size=       0KiB time=N/A bitrate=N/A speed=N/A elapsed=0:00:01.32    \nframe=    0 fps=0.0 q=0.0 size=       0KiB time=N/A bitrate=N/A speed=N/A elapsed=0:00:02.12    \nframe=    0 fps=0.0 q=0.0 size=       0KiB time=N/A bitrate=N/A speed=N/A elapsed=0:00:02.67    \nframe=    0 fps=0.0 q=0.0 size=       0KiB time=N/A bitrate=N/A speed=N/A elapsed=0:00:03.20    \nframe=    0 fps=0.0 q=0.0 size=       0KiB time=N/A bitrate=N/A speed=N/A elapsed=0:00:03.71    \nframe=    0 fps=0.0 q=0.0 size=       0KiB time=N/A bitrate=N/A speed=N/A elapsed=0:00:04.26    \nframe=    0 fps=0.0 q=0.0 size=       0KiB time=N/A bitrate=N/A speed=N/A elapsed=0:00:04.79    \nframe=    0 fps=0.0 q=0.0 size=       0KiB time=N/A bitrate=N/A speed=N/A elapsed=0:00:05.35    \nframe=    0 fps=0.0 q=0.0 size=       0KiB time=N/A bitrate=N/A speed=N/A elapsed=0:00:05.94    \nframe=    0 fps=0.0 q=0.0 size=       0KiB time=N/A bitrate=N/A speed=N/A elapsed=0:00:06.61    \nframe=    0 fps=0.0 q=0.0 size=       0KiB time=N/A bitrate=N/A speed=N/A elapsed=0:00:07.99    \nframe=    0 fps=0.0 q=0.0 size=       0KiB time=N/A bitrate=N/A speed=N/A elapsed=0:00:09.26    \nframe=    0 fps=0.0 q=0.0 size=       0KiB time=N/A bitrate=N/A speed=N/A elapsed=0:00:10.12    \nframe=    1 fps=0.1 q=38.0 size=       1KiB time=00:00:00.00 bitrate=N/A speed=   0x elapsed=0:00:10.84    \nframe=    1 fps=0.1 q=38.0 size=       1KiB time=00:00:00.00 bitrate=N/A speed=   0x elapsed=0:00:11.54    \nframe=    1 fps=0.1 q=38.0 size=       1KiB time=00:00:00.00 bitrate=N/A speed=   0x elapsed=0:00:12.30    \nframe=    1 fps=0.1 q=38.0 size=       1KiB time=00:00:00.00 bitrate=N/A speed=   0x elapsed=0:00:13.08    \nframe=    2 fps=0.1 q=62.0 size=       1KiB time=00:00:00.00 bitrate=N/A speed=   0x elapsed=0:00:13.83    \nframe=    5 fps=0.3 q=56.0 size=       1KiB time=00:00:00.06 bitrate=  74.9kbits/s speed=0.00411x elapsed=0:00:14.61    \nframe=    7 fps=0.5 q=58.0 size=       1KiB time=00:00:00.12 bitrate=  37.5kbits/s speed=0.00781x elapsed=0:00:15.36    \nframe=    8 fps=0.5 q=58.0 size=       1KiB time=00:00:00.14 bitrate=  32.1kbits/s speed=0.00865x elapsed=0:00:16.18    \nframe=   10 fps=0.6 q=57.0 size=       1KiB time=00:00:00.18 bitrate=  25.0kbits/s speed=0.0106x elapsed=0:00:17.02    \nframe=   11 fps=0.6 q=58.0 size=       1KiB time=00:00:00.20 bitrate=  22.5kbits/s speed=0.0112x elapsed=0:00:17.81    \nframe=   16 fps=0.9 q=56.0 size=       1KiB time=00:00:00.26 bitrate=  17.3kbits/s speed=0.014x elapsed=0:00:18.62    \nframe=   19 fps=1.0 q=59.0 size=       1KiB time=00:00:00.34 bitrate=  13.2kbits/s speed=0.0174x elapsed=0:00:19.51    \nframe=   21 fps=1.0 q=58.0 size=       1KiB time=00:00:00.38 bitrate=  11.8kbits/s speed=0.0186x elapsed=0:00:20.38    \nframe=   23 fps=1.1 q=57.0 size=       1KiB time=00:00:00.42 bitrate=  10.7kbits/s speed=0.0198x elapsed=0:00:21.20    \nframe=   25 fps=1.1 q=55.0 size=       1KiB time=00:00:00.46 bitrate=   9.8kbits/s speed=0.0208x elapsed=0:00:22.08    \nframe=   27 fps=1.2 q=58.0 size=       1KiB time=00:00:00.52 bitrate=   8.6kbits/s speed=0.0226x elapsed=0:00:22.97    \nframe=   29 fps=1.2 q=56.0 size=       1KiB time=00:00:00.56 bitrate=   8.0kbits/s speed=0.0238x elapsed=0:00:23.53    \nframe=   31 fps=1.3 q=58.0 size=       1KiB time=00:00:00.60 bitrate=   7.5kbits/s speed=0.0249x elapsed=0:00:24.06    \nframe=   32 fps=1.3 q=55.0 size=       1KiB time=00:00:00.62 bitrate=   7.3kbits/s speed=0.0252x elapsed=0:00:24.60    \nframe=   33 fps=1.3 q=46.0 size=       1KiB time=00:00:00.64 bitrate=   7.0kbits/s speed=0.0254x elapsed=0:00:25.20    \nframe=   34 fps=1.3 q=54.0 size=       1KiB time=00:00:00.66 bitrate=   6.8kbits/s speed=0.0256x elapsed=0:00:25.75    \nframe=   35 fps=1.3 q=58.0 size=       1KiB time=00:00:00.68 bitrate=   6.6kbits/s speed=0.0259x elapsed=0:00:26.29    \nframe=   37 fps=1.4 q=57.0 size=       1KiB time=00:00:00.72 bitrate=   6.2kbits/s speed=0.0268x elapsed=0:00:26.83    \nframe=   38 fps=1.4 q=56.0 size=       1KiB time=00:00:00.74 bitrate=   6.1kbits/s speed=0.027x elapsed=0:00:27.37    \nframe=   39 fps=1.4 q=58.0 size=       1KiB time=00:00:00.76 bitrate=   5.9kbits/s speed=0.0272x elapsed=0:00:27.89    \nframe=   40 fps=1.4 q=55.0 size=       1KiB time=00:00:00.78 bitrate=   5.8kbits/s speed=0.0274x elapsed=0:00:28.43    \nframe=   41 fps=1.4 q=53.0 size=       1KiB time=00:00:00.80 bitrate=   5.6kbits/s speed=0.0276x elapsed=0:00:28.96    \nframe=   43 fps=1.5 q=59.0 size=       1KiB time=00:00:00.84 bitrate=   5.4kbits/s speed=0.0285x elapsed=0:00:29.48    \nframe=   44 fps=1.5 q=55.0 size=       1KiB time=00:00:00.86 bitrate=   5.2kbits/s speed=0.0287x elapsed=0:00:30.00    \nframe=   46 fps=1.5 q=56.0 size=       1KiB time=00:00:00.90 bitrate=   5.0kbits/s speed=0.0295x elapsed=0:00:30.53    \nframe=   47 fps=1.5 q=59.0 size=       1KiB time=00:00:00.92 bitrate=   4.9kbits/s speed=0.0296x elapsed=0:00:31.11    \nframe=   49 fps=1.5 q=46.0 size=       1KiB time=00:00:00.96 bitrate=   4.7kbits/s speed=0.0303x elapsed=0:00:31.65    \nframe=   50 fps=1.6 q=55.0 size=       1KiB time=00:00:00.98 bitrate=   4.6kbits/s speed=0.0304x elapsed=0:00:32.23    \nframe=   51 fps=1.6 q=58.0 size=       1KiB time=00:00:01.00 bitrate=   4.5kbits/s speed=0.0305x elapsed=0:00:32.75    \nframe=   52 fps=1.6 q=56.0 size=       1KiB time=00:00:01.02 bitrate=   4.4kbits/s speed=0.0306x elapsed=0:00:33.30    \nframe=   54 fps=1.6 q=57.0 size=       1KiB time=00:00:01.06 bitrate=   4.2kbits/s speed=0.0313x elapsed=0:00:33.81    \nframe=   55 fps=1.6 q=58.0 size=       1KiB time=00:00:01.08 bitrate=   4.2kbits/s speed=0.0314x elapsed=0:00:34.39    \nframe=   56 fps=1.6 q=57.0 size=       1KiB time=00:00:01.10 bitrate=   4.1kbits/s speed=0.0314x elapsed=0:00:34.98    \nframe=   57 fps=1.6 q=52.0 size=       1KiB time=00:00:01.12 bitrate=   4.0kbits/s speed=0.0315x elapsed=0:00:35.54    \nframe=   59 fps=1.6 q=58.0 size=       1KiB time=00:00:01.16 bitrate=   3.9kbits/s speed=0.0322x elapsed=0:00:36.06    \nframe=   59 fps=1.6 q=58.0 size=       1KiB time=00:00:01.16 bitrate=   3.9kbits/s speed=0.0317x elapsed=0:00:36.58    \nframe=   60 fps=1.6 q=56.0 size=       1KiB time=00:00:01.18 bitrate=   3.8kbits/s speed=0.0318x elapsed=0:00:37.14    \nframe=   61 fps=1.6 q=55.0 size=       1KiB time=00:00:01.20 bitrate=   3.7kbits/s speed=0.0318x elapsed=0:00:37.73    \nframe=   63 fps=1.6 q=58.0 size=       1KiB time=00:00:01.22 bitrate=   3.7kbits/s speed=0.0319x elapsed=0:00:38.27    \nframe=   63 fps=1.6 q=58.0 size=       1KiB time=00:00:01.24 bitrate=   3.6kbits/s speed=0.0319x elapsed=0:00:38.83    \nframe=   66 fps=1.7 q=56.0 size=       1KiB time=00:00:01.28 bitrate=   3.5kbits/s speed=0.0325x elapsed=0:00:39.42    \nframe=   66 fps=1.7 q=56.0 size=       1KiB time=00:00:01.30 bitrate=   3.5kbits/s speed=0.0325x elapsed=0:00:39.98    \nframe=   67 fps=1.7 q=58.0 size=       1KiB time=00:00:01.32 bitrate=   3.4kbits/s speed=0.0326x elapsed=0:00:40.53    \nframe=   67 fps=1.6 q=58.0 size=       1KiB time=00:00:01.32 bitrate=   3.4kbits/s speed=0.0321x elapsed=0:00:41.07    \nframe=   68 fps=1.6 q=55.0 size=       1KiB time=00:00:01.34 bitrate=   3.4kbits/s speed=0.0322x elapsed=0:00:41.59    \nframe=   69 fps=1.6 q=56.0 size=       1KiB time=00:00:01.36 bitrate=   3.3kbits/s speed=0.0323x elapsed=0:00:42.15    \nframe=   70 fps=1.6 q=56.0 size=       1KiB time=00:00:01.38 bitrate=   3.3kbits/s speed=0.0323x elapsed=0:00:42.67    \nframe=   71 fps=1.6 q=56.0 size=       1KiB time=00:00:01.40 bitrate=   3.2kbits/s speed=0.0324x elapsed=0:00:43.19    \nframe=   71 fps=1.6 q=56.0 size=       1KiB time=00:00:01.40 bitrate=   3.2kbits/s speed=0.032x elapsed=0:00:43.79    \nframe=   73 fps=1.6 q=52.0 size=       1KiB time=00:00:01.44 bitrate=   3.1kbits/s speed=0.0325x elapsed=0:00:44.36    \nframe=   74 fps=1.6 q=57.0 size=       1KiB time=00:00:01.46 bitrate=   3.1kbits/s speed=0.0325x elapsed=0:00:44.90    \nframe=   75 fps=1.6 q=58.0 size=       1KiB time=00:00:01.48 bitrate=   3.0kbits/s speed=0.0326x elapsed=0:00:45.46    \nframe=   76 fps=1.7 q=55.0 size=       1KiB time=00:00:01.50 bitrate=   3.0kbits/s speed=0.0326x elapsed=0:00:46.03    \nframe=   78 fps=1.7 q=58.0 size=       1KiB time=00:00:01.54 bitrate=   2.9kbits/s speed=0.0331x elapsed=0:00:46.59    \nframe=   81 fps=1.7 q=41.0 size=       1KiB time=00:00:01.60 bitrate=   2.8kbits/s speed=0.0339x elapsed=0:00:47.13    \nframe=   83 fps=1.7 q=58.0 size=       1KiB time=00:00:01.64 bitrate=   2.7kbits/s speed=0.0344x elapsed=0:00:47.67    \nframe=   84 fps=1.7 q=59.0 size=       1KiB time=00:00:01.64 bitrate=   2.7kbits/s speed=0.034x elapsed=0:00:48.22    \nframe=   85 fps=1.7 q=56.0 size=       1KiB time=00:00:01.68 bitrate=   2.7kbits/s speed=0.0344x elapsed=0:00:48.80    \nframe=   86 fps=1.7 q=58.0 size=       1KiB time=00:00:01.70 bitrate=   2.6kbits/s speed=0.0345x elapsed=0:00:49.34    \nframe=   86 fps=1.7 q=58.0 size=       1KiB time=00:00:01.70 bitrate=   2.6kbits/s speed=0.0341x elapsed=0:00:49.91    \nframe=   87 fps=1.7 q=56.0 size=       1KiB time=00:00:01.72 bitrate=   2.6kbits/s speed=0.0341x elapsed=0:00:50.46    \nframe=   87 fps=1.7 q=56.0 size=       1KiB time=00:00:01.72 bitrate=   2.6kbits/s speed=0.0337x elapsed=0:00:51.02    \nframe=   89 fps=1.7 q=53.0 size=       1KiB time=00:00:01.74 bitrate=   2.6kbits/s speed=0.0337x elapsed=0:00:51.62    \nframe=   90 fps=1.7 q=59.0 size=       1KiB time=00:00:01.78 bitrate=   2.5kbits/s speed=0.0341x elapsed=0:00:52.16    \nframe=   92 fps=1.7 q=60.0 size=       1KiB time=00:00:01.82 bitrate=   2.5kbits/s speed=0.0345x elapsed=0:00:52.70    \nframe=   94 fps=1.8 q=60.0 size=       1KiB time=00:00:01.86 bitrate=   2.4kbits/s speed=0.0349x elapsed=0:00:53.26    \nframe=   96 fps=1.8 q=60.0 size=       1KiB time=00:00:01.90 bitrate=   2.4kbits/s speed=0.0353x elapsed=0:00:53.79    \nframe=   99 fps=1.8 q=60.0 size=       1KiB time=00:00:01.96 bitrate=   2.3kbits/s speed=0.0361x elapsed=0:00:54.33    \nframe=   99 fps=1.8 q=60.0 size=       1KiB time=00:00:01.96 bitrate=   2.3kbits/s speed=0.0357x elapsed=0:00:54.88    \nframe=  102 fps=1.8 q=60.0 size=       1KiB time=00:00:02.02 bitrate=   2.2kbits/s speed=0.0365x elapsed=0:00:55.41    \nframe=  103 fps=1.8 q=57.0 size=       1KiB time=00:00:02.04 bitrate=   2.2kbits/s speed=0.0365x elapsed=0:00:55.95    \nframe=  104 fps=1.8 q=60.0 size=       1KiB time=00:00:02.06 bitrate=   2.2kbits/s speed=0.0365x elapsed=0:00:56.46    \nframe=  106 fps=1.9 q=61.0 size=       1KiB time=00:00:02.10 bitrate=   2.1kbits/s speed=0.0369x elapsed=0:00:56.98    \nframe=  108 fps=1.9 q=59.0 size=       1KiB time=00:00:02.14 bitrate=   2.1kbits/s speed=0.0372x elapsed=0:00:57.51    \nframe=  109 fps=1.9 q=56.0 size=       1KiB time=00:00:02.16 bitrate=   2.1kbits/s speed=0.0372x elapsed=0:00:58.03    \nframe=  112 fps=1.9 q=61.0 size=       1KiB time=00:00:02.22 bitrate=   2.0kbits/s speed=0.0379x elapsed=0:00:58.56    \nframe=  114 fps=1.9 q=62.0 size=       1KiB time=00:00:02.26 bitrate=   2.0kbits/s speed=0.0382x elapsed=0:00:59.08    \nframe=  118 fps=2.0 q=62.0 size=       1KiB time=00:00:02.34 bitrate=   1.9kbits/s speed=0.0392x elapsed=0:00:59.63    \nframe=  118 fps=2.0 q=62.0 size=       1KiB time=00:00:02.34 bitrate=   1.9kbits/s speed=0.0389x elapsed=0:01:00.16    \nframe=  119 fps=2.0 q=61.0 size=       1KiB time=00:00:02.36 bitrate=   1.9kbits/s speed=0.0389x elapsed=0:01:00.71    \nframe=  122 fps=2.0 q=62.0 size=       1KiB time=00:00:02.42 bitrate=   1.9kbits/s speed=0.0395x elapsed=0:01:01.24    \nframe=  124 fps=2.0 q=62.0 size=       1KiB time=00:00:02.46 bitrate=   1.8kbits/s speed=0.0398x elapsed=0:01:01.82    \nframe=  126 fps=2.0 q=62.0 size=       1KiB time=00:00:02.50 bitrate=   1.8kbits/s speed=0.0401x elapsed=0:01:02.38    \nframe=  127 fps=2.0 q=60.0 size=       1KiB time=00:00:02.52 bitrate=   1.8kbits/s speed=0.04x elapsed=0:01:02.94    \nframe=  130 fps=2.0 q=63.0 size=       1KiB time=00:00:02.56 bitrate=   1.8kbits/s speed=0.0403x elapsed=0:01:03.51    \nframe=  133 fps=2.1 q=60.0 size=       1KiB time=00:00:02.64 bitrate=   1.7kbits/s speed=0.0412x elapsed=0:01:04.07    \nframe=  134 fps=2.1 q=63.0 size=       1KiB time=00:00:02.66 bitrate=   1.7kbits/s speed=0.0412x elapsed=0:01:04.61    \nframe=  137 fps=2.1 q=56.0 size=       1KiB time=00:00:02.72 bitrate=   1.7kbits/s speed=0.0418x elapsed=0:01:05.14    \nframe=  139 fps=2.1 q=62.0 size=       1KiB time=00:00:02.76 bitrate=   1.6kbits/s speed=0.042x elapsed=0:01:05.69    \nframe=  141 fps=2.1 q=60.0 size=       1KiB time=00:00:02.80 bitrate=   1.6kbits/s speed=0.0423x elapsed=0:01:06.24    \nframe=  145 fps=2.2 q=49.0 size=       1KiB time=00:00:02.88 bitrate=   1.6kbits/s speed=0.0431x elapsed=0:01:06.76    \nframe=  148 fps=2.2 q=63.0 size=       1KiB time=00:00:02.94 bitrate=   1.5kbits/s speed=0.0437x elapsed=0:01:07.29    \nframe=  149 fps=2.2 q=60.0 size=       1KiB time=00:00:02.96 bitrate=   1.5kbits/s speed=0.0436x elapsed=0:01:07.82    \nframe=  151 fps=2.2 q=62.0 size=       1KiB time=00:00:03.00 bitrate=   1.5kbits/s speed=0.0439x elapsed=0:01:08.37    \nframe=  154 fps=2.2 q=63.0 size=       1KiB time=00:00:03.06 bitrate=   1.5kbits/s speed=0.0444x elapsed=0:01:08.89    \nframe=  155 fps=2.2 q=62.0 size=       1KiB time=00:00:03.08 bitrate=   1.5kbits/s speed=0.0443x elapsed=0:01:09.46    \nframe=  156 fps=2.2 q=63.0 size=       1KiB time=00:00:03.10 bitrate=   1.5kbits/s speed=0.0443x elapsed=0:01:09.99    \nframe=  157 fps=2.2 q=60.0 size=       1KiB time=00:00:03.12 bitrate=   1.4kbits/s speed=0.0442x elapsed=0:01:10.51    \nframe=  160 fps=2.3 q=60.0 size=       1KiB time=00:00:03.18 bitrate=   1.4kbits/s speed=0.0448x elapsed=0:01:11.03    \nframe=  162 fps=2.3 q=62.0 size=       1KiB time=00:00:03.22 bitrate=   1.4kbits/s speed=0.045x elapsed=0:01:11.58    \nframe=  166 fps=2.3 q=62.0 size=       1KiB time=00:00:03.28 bitrate=   1.4kbits/s speed=0.0455x elapsed=0:01:12.13    \nframe=  167 fps=2.3 q=61.0 size=       1KiB time=00:00:03.32 bitrate=   1.4kbits/s speed=0.0457x elapsed=0:01:12.72    \nframe=  168 fps=2.3 q=62.0 size=       1KiB time=00:00:03.34 bitrate=   1.3kbits/s speed=0.0456x elapsed=0:01:13.28    \nframe=  170 fps=2.3 q=62.0 size=       1KiB time=00:00:03.38 bitrate=   1.3kbits/s speed=0.0458x elapsed=0:01:13.79    \nframe=  171 fps=2.3 q=61.0 size=       1KiB time=00:00:03.40 bitrate=   1.3kbits/s speed=0.0457x elapsed=0:01:14.34    \nframe=  173 fps=2.3 q=60.0 size=       1KiB time=00:00:03.44 bitrate=   1.3kbits/s speed=0.0459x elapsed=0:01:14.89    \nframe=  175 fps=2.3 q=59.0 size=       1KiB time=00:00:03.48 bitrate=   1.3kbits/s speed=0.0461x elapsed=0:01:15.42    \nframe=  179 fps=2.4 q=61.0 size=       1KiB time=00:00:03.56 bitrate=   1.3kbits/s speed=0.0469x elapsed=0:01:15.93    \nframe=  181 fps=2.4 q=59.0 size=       1KiB time=00:00:03.60 bitrate=   1.2kbits/s speed=0.0471x elapsed=0:01:16.46    \nframe=  182 fps=2.4 q=62.0 size=       1KiB time=00:00:03.62 bitrate=   1.2kbits/s speed=0.047x elapsed=0:01:16.98    \nframe=  184 fps=2.4 q=62.0 size=       1KiB time=00:00:03.66 bitrate=   1.2kbits/s speed=0.0472x elapsed=0:01:17.50    \nframe=  186 fps=2.4 q=61.0 size=       1KiB time=00:00:03.70 bitrate=   1.2kbits/s speed=0.0474x elapsed=0:01:18.02    \nframe=  187 fps=2.4 q=59.0 size=       1KiB time=00:00:03.72 bitrate=   1.2kbits/s speed=0.0473x elapsed=0:01:18.58    \nframe=  189 fps=2.4 q=56.0 size=       1KiB time=00:00:03.76 bitrate=   1.2kbits/s speed=0.0475x elapsed=0:01:19.11    \nframe=  191 fps=2.4 q=59.0 size=       1KiB time=00:00:03.80 bitrate=   1.2kbits/s speed=0.0477x elapsed=0:01:19.67    \nframe=  193 fps=2.4 q=48.0 size=       1KiB time=00:00:03.82 bitrate=   1.2kbits/s speed=0.0476x elapsed=0:01:20.19    \nframe=  195 fps=2.4 q=61.0 size=       1KiB time=00:00:03.88 bitrate=   1.2kbits/s speed=0.0481x elapsed=0:01:20.71    \nframe=  197 fps=2.4 q=59.0 size=       1KiB time=00:00:03.92 bitrate=   1.1kbits/s speed=0.0482x elapsed=0:01:21.24    \nframe=  198 fps=2.4 q=61.0 size=       1KiB time=00:00:03.94 bitrate=   1.1kbits/s speed=0.0482x elapsed=0:01:21.78    \nframe=  199 fps=2.4 q=60.0 size=       1KiB time=00:00:03.96 bitrate=   1.1kbits/s speed=0.0481x elapsed=0:01:22.30    \nframe=  200 fps=2.4 q=61.0 size=       1KiB time=00:00:03.98 bitrate=   1.1kbits/s speed=0.048x elapsed=0:01:22.83    \nframe=  202 fps=2.4 q=61.0 size=       1KiB time=00:00:04.02 bitrate=   1.1kbits/s speed=0.0482x elapsed=0:01:23.36    \nframe=  203 fps=2.4 q=59.0 size=       1KiB time=00:00:04.04 bitrate=   1.1kbits/s speed=0.0482x elapsed=0:01:23.88    \nframe=  204 fps=2.4 q=57.0 size=       1KiB time=00:00:04.06 bitrate=   1.1kbits/s speed=0.0481x elapsed=0:01:24.39    \nframe=  206 fps=2.4 q=59.0 size=       1KiB time=00:00:04.10 bitrate=   1.1kbits/s speed=0.0483x elapsed=0:01:24.92    \nframe=  207 fps=2.4 q=57.0 size=       1KiB time=00:00:04.12 bitrate=   1.1kbits/s speed=0.0482x elapsed=0:01:25.44    \nframe=  208 fps=2.4 q=59.0 size=       1KiB time=00:00:04.14 bitrate=   1.1kbits/s speed=0.0482x elapsed=0:01:25.97    \nframe=  210 fps=2.4 q=60.0 size=       1KiB time=00:00:04.18 bitrate=   1.1kbits/s speed=0.0483x elapsed=0:01:26.52    \nframe=  211 fps=2.4 q=59.0 size=       1KiB time=00:00:04.20 bitrate=   1.1kbits/s speed=0.0482x elapsed=0:01:27.06    \nframe=  213 fps=2.4 q=57.0 size=       1KiB time=00:00:04.24 bitrate=   1.1kbits/s speed=0.0484x elapsed=0:01:27.59    \nframe=  214 fps=2.4 q=59.0 size=       1KiB time=00:00:04.26 bitrate=   1.1kbits/s speed=0.0483x elapsed=0:01:28.12    \nframe=  215 fps=2.4 q=56.0 size=       1KiB time=00:00:04.28 bitrate=   1.1kbits/s speed=0.0483x elapsed=0:01:28.65    \nframe=  215 fps=2.4 q=56.0 size=       1KiB time=00:00:04.28 bitrate=   1.1kbits/s speed=0.048x elapsed=0:01:29.16    \nframe=  218 fps=2.4 q=60.0 size=       1KiB time=00:00:04.34 bitrate=   1.0kbits/s speed=0.0484x elapsed=0:01:29.71    \nframe=  220 fps=2.4 q=60.0 size=       1KiB time=00:00:04.36 bitrate=   1.0kbits/s speed=0.0483x elapsed=0:01:30.23    \nframe=  221 fps=2.4 q=55.0 size=       1KiB time=00:00:04.40 bitrate=   1.0kbits/s speed=0.0485x elapsed=0:01:30.76    \nframe=  224 fps=2.5 q=59.0 size=       1KiB time=00:00:04.44 bitrate=   1.0kbits/s speed=0.0486x elapsed=0:01:31.29    \nframe=  226 fps=2.5 q=60.0 size=       1KiB time=00:00:04.48 bitrate=   1.0kbits/s speed=0.0488x elapsed=0:01:31.84    \nframe=  227 fps=2.5 q=59.0 size=       1KiB time=00:00:04.52 bitrate=   1.0kbits/s speed=0.0489x elapsed=0:01:32.38    \nframe=  229 fps=2.5 q=57.0 size=       1KiB time=00:00:04.56 bitrate=   1.0kbits/s speed=0.0491x elapsed=0:01:32.94    \nframe=  230 fps=2.5 q=58.0 size=       1KiB time=00:00:04.58 bitrate=   1.0kbits/s speed=0.049x elapsed=0:01:33.48    \nframe=  231 fps=2.5 q=55.0 size=       1KiB time=00:00:04.60 bitrate=   1.0kbits/s speed=0.0489x elapsed=0:01:34.03    \nframe=  233 fps=2.5 q=53.0 size=       1KiB time=00:00:04.64 bitrate=   1.0kbits/s speed=0.0491x elapsed=0:01:34.54    \nframe=  235 fps=2.5 q=58.0 size=       1KiB time=00:00:04.68 bitrate=   1.0kbits/s speed=0.0492x elapsed=0:01:35.14    \nframe=  236 fps=2.5 q=60.0 size=       1KiB time=00:00:04.70 bitrate=   1.0kbits/s speed=0.0491x elapsed=0:01:35.70    \nframe=  237 fps=2.5 q=54.0 size=       1KiB time=00:00:04.72 bitrate=   1.0kbits/s speed=0.049x elapsed=0:01:36.29    \nframe=  239 fps=2.5 q=58.0 size=       1KiB time=00:00:04.76 bitrate=   0.9kbits/s speed=0.0491x elapsed=0:01:36.86    \nframe=  241 fps=2.5 q=45.0 size=       1KiB time=00:00:04.80 bitrate=   0.9kbits/s speed=0.0493x elapsed=0:01:37.44    \nframe=  243 fps=2.5 q=59.0 size=       1KiB time=00:00:04.84 bitrate=   0.9kbits/s speed=0.0494x elapsed=0:01:38.01    \nframe=  246 fps=2.5 q=60.0 size=       1KiB time=00:00:04.90 bitrate=   0.9kbits/s speed=0.0497x elapsed=0:01:38.56    \nframe=  246 fps=2.5 q=60.0 size=       1KiB time=00:00:04.90 bitrate=   0.9kbits/s speed=0.0494x elapsed=0:01:39.09    \nframe=  247 fps=2.5 q=59.0 size=       1KiB time=00:00:04.92 bitrate=   0.9kbits/s speed=0.0494x elapsed=0:01:39.62    \nframe=  250 fps=2.5 q=60.0 size=       1KiB time=00:00:04.98 bitrate=   0.9kbits/s speed=0.0497x elapsed=0:01:40.14    \nframe=  251 fps=2.5 q=58.0 size=       1KiB time=00:00:05.00 bitrate=   0.9kbits/s speed=0.0497x elapsed=0:01:40.66    \nframe=  254 fps=2.5 q=60.0 size=     512KiB time=00:00:05.06 bitrate= 828.9kbits/s speed=0.05x elapsed=0:01:41.22    \nframe=  256 fps=2.5 q=60.0 size=     512KiB time=00:00:05.10 bitrate= 822.4kbits/s speed=0.0501x elapsed=0:01:41.73    \nframe=  258 fps=2.5 q=61.0 size=     512KiB time=00:00:05.14 bitrate= 816.0kbits/s speed=0.0503x elapsed=0:01:42.26    \nframe=  260 fps=2.5 q=61.0 size=     512KiB time=00:00:05.18 bitrate= 809.7kbits/s speed=0.0504x elapsed=0:01:42.78    \nframe=  262 fps=2.5 q=61.0 size=     512KiB time=00:00:05.22 bitrate= 803.5kbits/s speed=0.0505x elapsed=0:01:43.32    \nframe=  262 fps=2.5 q=61.0 size=     512KiB time=00:00:05.22 bitrate= 803.5kbits/s speed=0.0503x elapsed=0:01:43.84    \nframe=  265 fps=2.5 q=53.0 size=     512KiB time=00:00:05.26 bitrate= 797.4kbits/s speed=0.0504x elapsed=0:01:44.40    \nframe=  267 fps=2.5 q=59.0 size=     512KiB time=00:00:05.30 bitrate= 791.4kbits/s speed=0.0505x elapsed=0:01:44.96    \nframe=  268 fps=2.5 q=61.0 size=     512KiB time=00:00:05.34 bitrate= 785.5kbits/s speed=0.0506x elapsed=0:01:45.54    \nframe=  271 fps=2.6 q=59.0 size=     512KiB time=00:00:05.40 bitrate= 776.7kbits/s speed=0.0509x elapsed=0:01:46.16    \nframe=  273 fps=2.6 q=44.0 size=     512KiB time=00:00:05.44 bitrate= 771.0kbits/s speed=0.051x elapsed=0:01:46.69    \nframe=  274 fps=2.6 q=62.0 size=     512KiB time=00:00:05.46 bitrate= 768.2kbits/s speed=0.0509x elapsed=0:01:47.22    \nframe=  278 fps=2.6 q=62.0 size=     512KiB time=00:00:05.54 bitrate= 757.1kbits/s speed=0.0514x elapsed=0:01:47.76    \nframe=  278 fps=2.6 q=62.0 size=     512KiB time=00:00:05.54 bitrate= 757.1kbits/s speed=0.0512x elapsed=0:01:48.28    \nframe=  279 fps=2.6 q=61.0 size=     512KiB time=00:00:05.56 bitrate= 754.4kbits/s speed=0.0511x elapsed=0:01:48.82    \nframe=  281 fps=2.6 q=55.0 size=     512KiB time=00:00:05.60 bitrate= 749.0kbits/s speed=0.0512x elapsed=0:01:49.43    \nframe=  282 fps=2.6 q=62.0 size=     512KiB time=00:00:05.62 bitrate= 746.3kbits/s speed=0.0511x elapsed=0:01:49.97    \nframe=  286 fps=2.6 q=62.0 size=     512KiB time=00:00:05.68 bitrate= 738.4kbits/s speed=0.0514x elapsed=0:01:50.49    \nframe=  287 fps=2.6 q=61.0 size=     512KiB time=00:00:05.72 bitrate= 733.3kbits/s speed=0.0515x elapsed=0:01:51.01    \nframe=  290 fps=2.6 q=61.0 size=     512KiB time=00:00:05.78 bitrate= 725.7kbits/s speed=0.0518x elapsed=0:01:51.60    \nframe=  292 fps=2.6 q=61.0 size=     512KiB time=00:00:05.80 bitrate= 723.2kbits/s speed=0.0517x elapsed=0:01:52.14    \nframe=  294 fps=2.6 q=60.0 size=     512KiB time=00:00:05.86 bitrate= 715.8kbits/s speed=0.052x elapsed=0:01:52.67    \nframe=  294 fps=2.6 q=60.0 size=     512KiB time=00:00:05.86 bitrate= 715.8kbits/s speed=0.0518x elapsed=0:01:53.18    \nframe=  296 fps=2.6 q=60.0 size=     512KiB time=00:00:05.90 bitrate= 710.9kbits/s speed=0.0519x elapsed=0:01:53.71    \nframe=  298 fps=2.6 q=61.0 size=     512KiB time=00:00:05.94 bitrate= 706.1kbits/s speed=0.052x elapsed=0:01:54.25    \nframe=  300 fps=2.6 q=61.0 size=     512KiB time=00:00:05.98 bitrate= 701.4kbits/s speed=0.0521x elapsed=0:01:54.81    \nframe=  301 fps=2.6 q=58.0 size=     512KiB time=00:00:06.00 bitrate= 699.1kbits/s speed=0.052x elapsed=0:01:55.34    \nframe=  302 fps=2.6 q=58.0 size=     512KiB time=00:00:06.02 bitrate= 696.7kbits/s speed=0.052x elapsed=0:01:55.85    \nframe=  304 fps=2.6 q=55.0 size=     512KiB time=00:00:06.06 bitrate= 692.1kbits/s speed=0.0521x elapsed=0:01:56.39    \nframe=  305 fps=2.6 q=47.0 size=     512KiB time=00:00:06.08 bitrate= 689.9kbits/s speed=0.052x elapsed=0:01:56.90    \nframe=  305 fps=2.6 q=47.0 size=     512KiB time=00:00:06.08 bitrate= 689.9kbits/s speed=0.0518x elapsed=0:01:57.42    \nframe=  308 fps=2.6 q=61.0 size=     512KiB time=00:00:06.12 bitrate= 685.3kbits/s speed=0.0519x elapsed=0:01:57.98    \nframe=  308 fps=2.6 q=61.0 size=     512KiB time=00:00:06.14 bitrate= 683.1kbits/s speed=0.0518x elapsed=0:01:58.59    \nframe=  310 fps=2.6 q=60.0 size=     512KiB time=00:00:06.18 bitrate= 678.7kbits/s speed=0.0518x elapsed=0:01:59.19    \nframe=  312 fps=2.6 q=60.0 size=     512KiB time=00:00:06.22 bitrate= 674.3kbits/s speed=0.0519x elapsed=0:01:59.73    \nframe=  313 fps=2.6 q=58.0 size=     512KiB time=00:00:06.24 bitrate= 672.2kbits/s speed=0.0518x elapsed=0:02:00.34    \nframe=  313 fps=2.6 q=58.0 size=     512KiB time=00:00:06.24 bitrate= 672.2kbits/s speed=0.0516x elapsed=0:02:00.89    \nframe=  315 fps=2.6 q=59.0 size=     512KiB time=00:00:06.26 bitrate= 670.0kbits/s speed=0.0515x elapsed=0:02:01.49    \nframe=  316 fps=2.6 q=60.0 size=     512KiB time=00:00:06.28 bitrate= 667.9kbits/s speed=0.0514x elapsed=0:02:02.11    \nframe=  317 fps=2.6 q=57.0 size=     512KiB time=00:00:06.32 bitrate= 663.7kbits/s speed=0.0515x elapsed=0:02:02.66    \nframe=  317 fps=2.6 q=57.0 size=     512KiB time=00:00:06.32 bitrate= 663.7kbits/s speed=0.0513x elapsed=0:02:03.30    \nframe=  318 fps=2.6 q=59.0 size=     512KiB time=00:00:06.34 bitrate= 661.6kbits/s speed=0.0512x elapsed=0:02:03.84    \nframe=  321 fps=2.6 q=54.0 size=     512KiB time=00:00:06.38 bitrate= 657.4kbits/s speed=0.0513x elapsed=0:02:04.45    \nframe=  324 fps=2.6 q=59.0 size=     512KiB time=00:00:06.44 bitrate= 651.3kbits/s speed=0.0515x elapsed=0:02:05.08    \nframe=  327 fps=2.6 q=60.0 size=     512KiB time=00:00:06.50 bitrate= 645.3kbits/s speed=0.0516x elapsed=0:02:05.88    \nframe=  329 fps=2.6 q=59.0 size=     512KiB time=00:00:06.54 bitrate= 641.3kbits/s speed=0.0516x elapsed=0:02:06.72    \nframe=  333 fps=2.6 q=59.0 size=     512KiB time=00:00:06.62 bitrate= 633.6kbits/s speed=0.0519x elapsed=0:02:07.64    \nframe=  336 fps=2.6 q=57.0 size=     512KiB time=00:00:06.70 bitrate= 626.0kbits/s speed=0.0522x elapsed=0:02:08.45    \nframe=  338 fps=2.6 q=45.0 size=     512KiB time=00:00:06.72 bitrate= 624.2kbits/s speed=0.0519x elapsed=0:02:09.41    \nframe=  340 fps=2.6 q=59.0 size=     512KiB time=00:00:06.76 bitrate= 620.5kbits/s speed=0.0518x elapsed=0:02:10.50    \nframe=  344 fps=2.6 q=59.0 size=     512KiB time=00:00:06.84 bitrate= 613.2kbits/s speed=0.0521x elapsed=0:02:11.40    \nframe=  345 fps=2.6 q=60.0 size=     512KiB time=00:00:06.88 bitrate= 609.6kbits/s speed=0.052x elapsed=0:02:12.26    \nframe=  349 fps=2.6 q=60.0 size=     512KiB time=00:00:06.92 bitrate= 606.1kbits/s speed=0.052x elapsed=0:02:13.10    \nframe=  351 fps=2.6 q=58.0 size=     512KiB time=00:00:06.96 bitrate= 602.6kbits/s speed=0.0519x elapsed=0:02:14.01    \nframe=  353 fps=2.6 q=57.0 size=     512KiB time=00:00:07.04 bitrate= 595.8kbits/s speed=0.0522x elapsed=0:02:14.81    \nframe=  354 fps=2.6 q=43.0 size=     512KiB time=00:00:07.06 bitrate= 594.1kbits/s speed=0.0522x elapsed=0:02:15.33    \nframe=  356 fps=2.6 q=59.0 size=     512KiB time=00:00:07.10 bitrate= 590.7kbits/s speed=0.0523x elapsed=0:02:15.85    \nframe=  358 fps=2.6 q=57.0 size=     512KiB time=00:00:07.14 bitrate= 587.4kbits/s speed=0.0524x elapsed=0:02:16.37    \nframe=  360 fps=2.6 q=59.0 size=     512KiB time=00:00:07.18 bitrate= 584.2kbits/s speed=0.0525x elapsed=0:02:16.89    \nframe=  360 fps=2.6 q=59.0 size=     512KiB time=00:00:07.18 bitrate= 584.2kbits/s speed=0.0523x elapsed=0:02:17.40    \nframe=  363 fps=2.6 q=60.0 size=     512KiB time=00:00:07.24 bitrate= 579.3kbits/s speed=0.0525x elapsed=0:02:17.92    \nframe=  365 fps=2.6 q=60.0 size=     512KiB time=00:00:07.28 bitrate= 576.1kbits/s speed=0.0526x elapsed=0:02:18.43    \nframe=  368 fps=2.6 q=59.0 size=     512KiB time=00:00:07.34 bitrate= 571.4kbits/s speed=0.0528x elapsed=0:02:18.96    \nframe=  370 fps=2.7 q=42.0 size=     512KiB time=00:00:07.38 bitrate= 568.3kbits/s speed=0.0529x elapsed=0:02:19.48    \nframe=  371 fps=2.7 q=60.0 size=     512KiB time=00:00:07.40 bitrate= 566.8kbits/s speed=0.0529x elapsed=0:02:19.99    \nframe=  373 fps=2.7 q=60.0 size=     512KiB time=00:00:07.44 bitrate= 563.8kbits/s speed=0.053x elapsed=0:02:20.50    \nframe=  376 fps=2.7 q=59.0 size=     512KiB time=00:00:07.50 bitrate= 559.2kbits/s speed=0.0532x elapsed=0:02:21.02    \nframe=  378 fps=2.7 q=52.0 size=     512KiB time=00:00:07.54 bitrate= 556.3kbits/s speed=0.0533x elapsed=0:02:21.54    \nframe=  380 fps=2.7 q=59.0 size=     512KiB time=00:00:07.58 bitrate= 553.3kbits/s speed=0.0534x elapsed=0:02:22.05    \nframe=  381 fps=2.7 q=60.0 size=     512KiB time=00:00:07.60 bitrate= 551.9kbits/s speed=0.0533x elapsed=0:02:22.57    \nframe=  382 fps=2.7 q=57.0 size=     512KiB time=00:00:07.62 bitrate= 550.4kbits/s speed=0.0533x elapsed=0:02:23.08    \nframe=  384 fps=2.7 q=56.0 size=     512KiB time=00:00:07.66 bitrate= 547.6kbits/s speed=0.0533x elapsed=0:02:23.59    \nframe=  386 fps=2.7 q=42.0 size=     512KiB time=00:00:07.70 bitrate= 544.7kbits/s speed=0.0534x elapsed=0:02:24.11    \nframe=  387 fps=2.7 q=61.0 size=     512KiB time=00:00:07.72 bitrate= 543.3kbits/s speed=0.0534x elapsed=0:02:24.64    \nframe=  406 fps=2.8 q=59.0 size=     512KiB time=00:00:08.10 bitrate= 517.8kbits/s speed=0.0558x elapsed=0:02:25.15    \nframe=  410 fps=2.8 q=55.0 size=     512KiB time=00:00:08.18 bitrate= 512.8kbits/s speed=0.0562x elapsed=0:02:25.67    \nframe=  410 fps=2.8 q=55.0 size=     512KiB time=00:00:08.18 bitrate= 512.8kbits/s speed=0.056x elapsed=0:02:26.19    \nframe=  412 fps=2.8 q=61.0 size=     512KiB time=00:00:08.22 bitrate= 510.3kbits/s speed=0.056x elapsed=0:02:26.70    \nframe=  416 fps=2.8 q=61.0 size=     512KiB time=00:00:08.30 bitrate= 505.3kbits/s speed=0.0564x elapsed=0:02:27.22    \nframe=  418 fps=2.8 q=47.0 size=     512KiB time=00:00:08.34 bitrate= 502.9kbits/s speed=0.0565x elapsed=0:02:27.73    \nframe=  418 fps=2.8 q=47.0 size=     512KiB time=00:00:08.34 bitrate= 502.9kbits/s speed=0.0563x elapsed=0:02:28.25    \nframe=  420 fps=2.8 q=61.0 size=     512KiB time=00:00:08.38 bitrate= 500.5kbits/s speed=0.0563x elapsed=0:02:28.77    \nframe=  422 fps=2.8 q=59.0 size=     512KiB time=00:00:08.42 bitrate= 498.1kbits/s speed=0.0564x elapsed=0:02:29.28    \nframe=  426 fps=2.8 q=56.0 size=     512KiB time=00:00:08.50 bitrate= 493.4kbits/s speed=0.0567x elapsed=0:02:29.79    \nframe=  426 fps=2.8 q=56.0 size=     512KiB time=00:00:08.50 bitrate= 493.4kbits/s speed=0.0565x elapsed=0:02:30.31    \nframe=  426 fps=2.8 q=56.0 size=     512KiB time=00:00:08.50 bitrate= 493.4kbits/s speed=0.0564x elapsed=0:02:30.83    \nframe=  428 fps=2.8 q=61.0 size=     512KiB time=00:00:08.54 bitrate= 491.1kbits/s speed=0.0564x elapsed=0:02:31.34    \nframe=  430 fps=2.8 q=59.0 size=     512KiB time=00:00:08.58 bitrate= 488.8kbits/s speed=0.0565x elapsed=0:02:31.87    \nframe=  432 fps=2.8 q=61.0 size=     512KiB time=00:00:08.62 bitrate= 486.6kbits/s speed=0.0566x elapsed=0:02:32.38    \nframe=  434 fps=2.8 q=49.0 size=     512KiB time=00:00:08.66 bitrate= 484.3kbits/s speed=0.0566x elapsed=0:02:32.89    \nframe=  434 fps=2.8 q=49.0 size=     512KiB time=00:00:08.66 bitrate= 484.3kbits/s speed=0.0564x elapsed=0:02:33.41    \nframe=  434 fps=2.8 q=49.0 size=     512KiB time=00:00:08.66 bitrate= 484.3kbits/s speed=0.0563x elapsed=0:02:33.93    \nframe=  438 fps=2.8 q=58.0 size=     512KiB time=00:00:08.74 bitrate= 479.9kbits/s speed=0.0566x elapsed=0:02:34.45    \nframe=  438 fps=2.8 q=58.0 size=     512KiB time=00:00:08.74 bitrate= 479.9kbits/s speed=0.0564x elapsed=0:02:34.97    \nframe=  442 fps=2.8 q=54.0 size=     512KiB time=00:00:08.82 bitrate= 475.5kbits/s speed=0.0567x elapsed=0:02:35.49    \nframe=  442 fps=2.8 q=54.0 size=     512KiB time=00:00:08.82 bitrate= 475.5kbits/s speed=0.0565x elapsed=0:02:36.01    \nframe=  442 fps=2.8 q=54.0 size=     512KiB time=00:00:08.82 bitrate= 475.5kbits/s speed=0.0564x elapsed=0:02:36.52    \nframe=  442 fps=2.8 q=54.0 size=     512KiB time=00:00:08.82 bitrate= 475.5kbits/s speed=0.0562x elapsed=0:02:37.03    \nframe=  446 fps=2.8 q=55.0 size=     512KiB time=00:00:08.90 bitrate= 471.3kbits/s speed=0.0565x elapsed=0:02:37.55    \nframe=  446 fps=2.8 q=55.0 size=     512KiB time=00:00:08.90 bitrate= 471.3kbits/s speed=0.0563x elapsed=0:02:38.06    \nframe=  448 fps=2.8 q=57.0 size=     512KiB time=00:00:08.94 bitrate= 469.2kbits/s speed=0.0564x elapsed=0:02:38.58    \nframe=  450 fps=2.8 q=46.0 size=     512KiB time=00:00:08.98 bitrate= 467.1kbits/s speed=0.0564x elapsed=0:02:39.09    \nframe=  454 fps=2.8 q=57.0 size=     512KiB time=00:00:09.02 bitrate= 465.0kbits/s speed=0.0565x elapsed=0:02:39.62    \nframe=  454 fps=2.8 q=57.0 size=     512KiB time=00:00:09.06 bitrate= 462.9kbits/s speed=0.0566x elapsed=0:02:40.17    \nframe=  458 fps=2.9 q=53.0 size=     512KiB time=00:00:09.14 bitrate= 458.9kbits/s speed=0.0569x elapsed=0:02:40.69    \nframe=  458 fps=2.8 q=53.0 size=     512KiB time=00:00:09.14 bitrate= 458.9kbits/s speed=0.0567x elapsed=0:02:41.22    \nframe=  458 fps=2.8 q=53.0 size=     512KiB time=00:00:09.14 bitrate= 458.9kbits/s speed=0.0565x elapsed=0:02:41.76    \nframe=  458 fps=2.8 q=53.0 size=     512KiB time=00:00:09.14 bitrate= 458.9kbits/s speed=0.0563x elapsed=0:02:42.33    \nframe=  460 fps=2.8 q=58.0 size=     512KiB time=00:00:09.18 bitrate= 456.9kbits/s speed=0.0564x elapsed=0:02:42.87    \nframe=  462 fps=2.8 q=55.0 size=     512KiB time=00:00:09.22 bitrate= 454.9kbits/s speed=0.0564x elapsed=0:02:43.39    \nframe=  464 fps=2.8 q=57.0 size=     512KiB time=00:00:09.26 bitrate= 452.9kbits/s speed=0.0565x elapsed=0:02:43.90    \nframe=  466 fps=2.8 q=44.0 size=     512KiB time=00:00:09.30 bitrate= 451.0kbits/s speed=0.0566x elapsed=0:02:44.43    \nframe=  470 fps=2.8 q=57.0 size=     512KiB time=00:00:09.38 bitrate= 447.2kbits/s speed=0.0569x elapsed=0:02:44.97    \nframe=  472 fps=2.9 q=59.0 size=     512KiB time=00:00:09.42 bitrate= 445.3kbits/s speed=0.0569x elapsed=0:02:45.49    \nframe=  474 fps=2.9 q=53.0 size=     512KiB time=00:00:09.46 bitrate= 443.4kbits/s speed=0.057x elapsed=0:02:46.00    \nframe=  474 fps=2.8 q=53.0 size=     512KiB time=00:00:09.46 bitrate= 443.4kbits/s speed=0.0568x elapsed=0:02:46.57    \nframe=  474 fps=2.8 q=53.0 size=     512KiB time=00:00:09.46 bitrate= 443.4kbits/s speed=0.0566x elapsed=0:02:47.10    \nframe=  478 fps=2.9 q=55.0 size=     512KiB time=00:00:09.50 bitrate= 441.5kbits/s speed=0.0567x elapsed=0:02:47.63    \nframe=  478 fps=2.8 q=55.0 size=     512KiB time=00:00:09.54 bitrate= 439.7kbits/s speed=0.0567x elapsed=0:02:48.22    \nframe=  480 fps=2.8 q=61.0 size=     512KiB time=00:00:09.58 bitrate= 437.8kbits/s speed=0.0568x elapsed=0:02:48.75    \nframe=  482 fps=2.8 q=45.0 size=     512KiB time=00:00:09.62 bitrate= 436.0kbits/s speed=0.0568x elapsed=0:02:49.27    \nframe=  482 fps=2.8 q=45.0 size=     512KiB time=00:00:09.62 bitrate= 436.0kbits/s speed=0.0567x elapsed=0:02:49.80    \nframe=  486 fps=2.9 q=61.0 size=     512KiB time=00:00:09.70 bitrate= 432.4kbits/s speed=0.057x elapsed=0:02:50.32    \nframe=  490 fps=2.9 q=60.0 size=     512KiB time=00:00:09.78 bitrate= 428.9kbits/s speed=0.0572x elapsed=0:02:50.83    \nframe=  490 fps=2.9 q=60.0 size=     512KiB time=00:00:09.78 bitrate= 428.9kbits/s speed=0.0571x elapsed=0:02:51.39    \nframe=  490 fps=2.8 q=60.0 size=     512KiB time=00:00:09.78 bitrate= 428.9kbits/s speed=0.0569x elapsed=0:02:51.95    \nframe=  494 fps=2.9 q=61.0 size=     512KiB time=00:00:09.86 bitrate= 425.4kbits/s speed=0.0572x elapsed=0:02:52.47    \n[out#0/matroska @ 000001ce62999c40] video:1096KiB audio:0KiB subtitle:0KiB other streams:0KiB global headers:0KiB muxing overhead: 0.261949%\nframe=  500 fps=2.9 q=58.0 Lsize=    1099KiB time=00:00:09.98 bitrate= 902.0kbits/s speed=0.0578x elapsed=0:02:52.68    \n",
  "seconds": 174.08619499206543,
  "probe_out": {}
}